<svg xmlns="http://www.w3.org/2000/svg">
  <symbol id="time" fill="none" viewBox="0 0 35 35"><path stroke="#000" stroke-linecap="round" stroke-linejoin="round" stroke-width="2" d="M17.888 31.746c7.856 0 14.224-6.368 14.224-14.224S25.744 3.298 17.888 3.298 3.664 9.666 3.664 17.522s6.368 14.224 14.224 14.224Z"/><path stroke="#000" stroke-linecap="round" stroke-linejoin="round" stroke-width="2" d="M17.888 8.988v8.534h-6.4"/></symbol>

  <symbol id="list" fill="none" viewBox="0 0 35 35"><path stroke="#000" stroke-linecap="round" stroke-linejoin="round" stroke-width="2" d="m5.023 24.634 2.845 2.845 5.69-5.69M5.023 10.41l2.845 2.845 5.69-5.69M19.247 8.988h11.38M19.247 17.522h11.38M19.247 26.057h11.38"/></symbol>

  <symbol id="sliders" fill="none" viewBox="0 0 35 35"><path stroke="#000" stroke-linecap="round" stroke-linejoin="round" stroke-width="2" d="M30.627 6.143H20.67M14.98 6.143H5.023M30.627 17.522H17.825M12.136 17.522H5.022M30.627 28.902h-7.112M17.825 28.902H5.023M20.67 3.298v5.69M12.135 14.678v5.69M23.515 26.057v5.69"/></symbol>

  <symbol id="hand" fill="none" viewBox="0 0 35 35"><path stroke="#000" stroke-linecap="round" stroke-linejoin="round" stroke-width="2" d="M26.36 16.1V8.988a2.845 2.845 0 0 0-5.69 0"/><path stroke="#000" stroke-linecap="round" stroke-linejoin="round" stroke-width="2" d="M20.67 14.677V6.143a2.845 2.845 0 1 0-5.69 0v2.845M14.98 15.389V8.988a2.845 2.845 0 1 0-5.69 0v11.379"/><path stroke="#000" stroke-linecap="round" stroke-linejoin="round" stroke-width="2" d="M26.359 11.833a2.845 2.845 0 1 1 5.69 0v8.534a11.38 11.38 0 0 1-11.38 11.38h-2.845c-3.982 0-6.4-1.224-8.52-3.329l-5.12-5.12a2.845 2.845 0 0 1 4.025-4.012l2.503 2.504"/></symbol>

  <symbol id="splash" fill="none" viewBox="0 0 335 375"><path fill="url(#a)" d="M194.484.004c-14.408.878-40.603 126.245-40.603 126.245S76.931 25.842 54.993 48.082C33.055 70.322 119.5 182.176 119.5 182.176S15.615 135.413 1.62 179.233c-14.573 45.631 117.879 34.341 117.879 34.341S12.426 318.233 54.666 322.485c42.24 4.252 86.444-65.739 86.444-65.739s12.771 65.739 38.966 110.219c26.195 44.48 16.7-110.219 16.7-110.219s122.136 98.118 98.887 49.059c-23.248-49.059-69.745-71.953-69.745-71.953s125.084 7.094 106.746-32.379c-15.954-34.343-96.595-9.485-96.595-9.485s84.807-56.908 81.86-65.739c-2.947-8.83-92.011 24.203-92.011 24.203s53.701-95.502 46.497-105.968c-7.204-10.466-75.639 90.596-75.639 90.596S208.891-.873 194.484.004Z"/><defs><radialGradient id="a" cx="0" cy="0" r="1" gradientTransform="matrix(0 183.48 -165.522 0 167.142 183.485)" gradientUnits="userSpaceOnUse"><stop stop-color="#B9F7B8"/><stop offset="1" stop-color="#B9F7B8" stop-opacity=".5"/></radialGradient></defs></symbol>
</svg>